<?xml version="1.0" ?><!DOCTYPE svg  PUBLIC '-//W3C//DTD SVG 1.1//EN'  'http://www.w3.org/Graphics/SVG/1.1/DTD/svg11.dtd'><svg enable-background="new 0 0 128 128" id="Слой_1" version="1.1" viewBox="0 0 128 128" xml:space="preserve" xmlns="http://www.w3.org/2000/svg" xmlns:xlink="http://www.w3.org/1999/xlink"><path d="M121,34.9c1.9-1.9,3-4.5,3-7.2V24c0-11-26.9-20-60-20S4,13,4,24v3.8c0,2.7,1.1,5.3,3,7.2l41.2,41.5  c3.7,3.7,5.8,8.8,5.8,14.1v25.2c0,1.5,1.6,2.5,2.9,1.8l14.3-7.2c1.7-0.8,2.8-2.6,2.8-4.5V90.6c0-5.3,2.1-10.3,5.8-14.1L121,34.9z" fill="#FFFFFF"/><path d="M54.2,74.5L17.1,34.9c-1.9-1.9-3-4.5-3-7.2V24C14,13.5,38.2,4.9,69,4.1C67.3,4,65.7,4,64,4C30.9,4,4,13,4,24  v3.8c0,2.7,1.1,5.3,3,7.2l41.2,41.5c3.7,3.7,5.8,8.8,5.8,14.1v25.2c0,1.5,1.6,2.5,2.9,1.8L60,116V88.6C60,83.3,57.9,78.2,54.2,74.5z  " fill="#E5E6E6"/><path d="M64,30c-23.6,0-39.2-4.6-46.2-8.2c-1.4-0.7-1.4-2.8,0-3.5c7-3.6,22.7-8.2,46.2-8.2s39.2,4.6,46.2,8.2  c1.4,0.7,1.4,2.8,0,3.5C103.2,25.4,87.6,30,64,30z" fill="#E5E6E6"/><path d="M110.9,16.9c-7.8-4.1-24.2-8.4-46.9-8.4s-39.1,4.3-46.9,8.4c-1.2,0.6-1.9,1.8-1.9,3.1c0,1.3,0.7,2.5,1.9,3.1  c7.8,4.1,24.2,8.4,46.9,8.4s39.1-4.3,46.9-8.4c1.2-0.6,1.9-1.8,1.9-3.1C112.8,18.7,112.1,17.5,110.9,16.9z M109.6,20.4  c-7.5,3.9-23.4,8.1-45.6,8.1s-38.1-4.2-45.6-8.1c-0.2-0.1-0.3-0.3-0.3-0.4c0-0.1,0-0.3,0.3-0.4c7.5-3.9,23.4-8.1,45.6-8.1  s38.1,4.2,45.6,8.1c0.2,0.1,0.3,0.3,0.3,0.4C109.8,20.1,109.8,20.3,109.6,20.4z" fill="#4A374F"/><path d="M64,43.5c-22.2,0-38.1-4.2-45.6-8.1c-0.7-0.4-1.6-0.1-2,0.6c-0.4,0.7-0.1,1.6,0.6,2  c7.8,4.1,24.2,8.4,46.9,8.4c0.8,0,1.5-0.7,1.5-1.5S64.8,43.5,64,43.5z" fill="#4A374F"/><path d="M64,2.5C29.5,2.5,2.5,11.9,2.5,24v3.8c0,3.1,1.3,6.1,3.5,8.2l41.2,41.5c3.5,3.5,5.4,8.1,5.4,13v25.2  c0,1.9,1.6,3.5,3.5,3.5c0.5,0,1.1-0.1,1.6-0.4l14.3-7.2c2.2-1.1,3.6-3.3,3.6-5.8V90.6c0-4.9,1.9-9.5,5.4-13L122,36  c2.2-2.2,3.5-5.2,3.5-8.3V24C125.5,11.9,98.5,2.5,64,2.5z M122.5,27.8c0,2.3-0.9,4.5-2.6,6.1L78.7,75.4c-4,4.1-6.2,9.4-6.2,15.1  v15.3c0,1.3-0.7,2.5-1.9,3.1l-14.3,7.2c-0.1,0-0.1,0.1-0.2,0.1c-0.2,0-0.5-0.2-0.5-0.5V90.6c0-5.7-2.2-11.1-6.2-15.1L8.1,33.9  c-1.6-1.6-2.6-3.8-2.6-6.1V24C5.5,15.1,29,5.5,64,5.5s58.5,9.6,58.5,18.5V27.8z" fill="#4A374F"/></svg>